<svg width="192" height="155" viewBox="0 0 192 155" fill="none" xmlns="http://www.w3.org/2000/svg">
<g clip-path="url(#clip0_26_63)">
<path d="M192 18.8742C184.935 21.9719 177.344 24.0656 169.376 25.0074C177.509 20.1868 183.755 12.5533 186.695 3.45796C178.963 7.99513 170.504 11.1918 161.682 12.91C154.496 5.34021 144.26 0.609375 132.929 0.609375C111.175 0.609375 93.537 18.0495 93.537 39.5596C93.537 42.6129 93.8857 45.5853 94.557 48.4369C61.8195 46.812 32.7945 31.3053 13.3657 7.73938C9.97575 13.4922 8.03325 20.1839 8.03325 27.3213C8.03325 40.8352 14.988 52.7569 25.557 59.7423C19.3016 59.5485 13.1839 57.8779 7.7145 54.8698C7.71225 55.0329 7.71225 55.1961 7.71225 55.36C7.71225 74.2322 21.2902 89.9754 39.3097 93.5538C33.5092 95.1137 27.4247 95.342 21.5212 94.2212C26.5335 109.696 41.0813 120.957 58.3178 121.272C44.8365 131.719 27.8513 137.946 9.39675 137.946C6.21675 137.946 3.08175 137.761 0 137.402C17.4323 148.453 38.1375 154.902 60.3825 154.902C132.838 154.902 172.458 95.5487 172.458 44.0769C172.458 42.3874 172.421 40.7077 172.344 39.0375C180.056 33.5249 186.712 26.697 192 18.8742Z" fill="#55ACEE"/>
</g>
<defs>
<clipPath id="clip0_26_63">
<rect width="192" height="155" fill="white"/>
</clipPath>
</defs>
</svg>
